PathFileType	4	(X/Y/Z)	s07c0101.trc
DataRate	CameraRate	NumFrames	NumMarkers	Units	OrigDataRate	OrigDataStartFrame	OrigNumFrames
200	200	5	48	mm	200	1250	2000
Frame#	Time	racr			lacr			c7			jug			rlel			rdr			llel			ldr			s2			lic			ric			lasi			rasi			rpsi			lpsi			rgt			lgt			rth1			rth2			rth3			rth4			rlfc			rmfc			rsh1			rsh2			rsh3			rsh4			rlmal			rcal			rtoe			rmt5			lth1			lth2			lth4			lth3			llfc			lmfc			lsh1			lsh2			lsh3			lsh4			llmal			lcal			ltoe			lmt5			SBIKE			LBIKE			RBIKE			
		X1	Y1	Z1	X2	Y2	Z2	X3	Y3	Z3	X4	Y4	Z4	X5	Y5	Z5	X6	Y6	Z6	X7	Y7	Z7	X8	Y8	Z8	X9	Y9	Z9	X10	Y10	Z10	X11	Y11	Z11	X12	Y12	Z12	X13	Y13	Z13	X14	Y14	Z14	X15	Y15	Z15	X16	Y16	Z16	X17	Y17	Z17	X18	Y18	Z18	X19	Y19	Z19	X20	Y20	Z20	X21	Y21	Z21	X22	Y22	Z22	X23	Y23	Z23	X24	Y24	Z24	X25	Y25	Z25	X26	Y26	Z26	X27	Y27	Z27	X28	Y28	Z28	X29	Y29	Z29	X30	Y30	Z30	X31	Y31	Z31	X32	Y32	Z32	X33	Y33	Z33	X34	Y34	Z34	X35	Y35	Z35	X36	Y36	Z36	X37	Y37	Z37	X38	Y38	Z38	X39	Y39	Z39	X40	Y40	Z40	X41	Y41	Z41	X42	Y42	Z42	X43	Y43	Z43	X44	Y44	Z44	X45	Y45	Z45	X46	Y46	Z46	X47	Y47	Z47	X48	Y48	Z48	
1250	6.2500	465.015080	1406.340338	-46.924067	514.317542	1375.245184	-306.445041	454.473179	1444.056740	-185.229882	401.114606	1298.996136	-187.064555	494.844556	1077.039096	68.004151	711.606693	916.421705	-62.906053	508.182375	1100.499146	-531.941963	711.979715	911.977733	-429.788334	-130.039873	1203.924841	-274.167734	49.082194	1250.798708	-399.016925	16.002164	1260.767262	-109.166988	71.777804	1177.638876	-367.709717	40.719175	1208.080495	-119.959349	-109.780824	1248.906922	-223.752092	-87.317190	1251.755812	-331.784106	-26.717652	1129.196618	-66.756838	-0.856077	1093.438962	-427.312699	95.843772	1021.919991	-64.523665	169.859115	975.836830	-76.348693	212.428719	901.953576	-80.680421	194.210656	1000.647330	-90.379895	297.992464	793.271362	-112.575657	279.239626	771.679761	-214.206050	268.793729	654.795563	-77.857530	271.560013	566.502568	-93.891252	236.958789	487.726632	-83.449737	284.495573	566.136247	-132.142065	206.210570	348.241041	-75.912093	146.892298	294.126125	-98.552545	433.397595	335.311797	-130.387461	369.135076	286.218519	-55.505222	86.069746	1010.858663	-426.238400	167.946212	976.565676	-421.467839	188.194536	1004.523185	-409.610510	223.095629	906.685651	-413.081776	331.988197	777.360826	-373.805888	316.223922	761.085160	-275.496064	220.373191	677.715659	-393.376502	171.178593	608.528378	-377.238796	90.550366	568.906332	-386.399666	175.174258	608.214343	-335.553772	-16.703146	493.329871	-390.374067	-93.384897	502.239649	-356.096270	120.808582	307.457828	-357.252150	41.957102	338.904132	-418.008031	-264.136485	977.722269	-237.272017	-82.721245	78.746063	-435.132704	-82.740480	78.925263	-37.681086	
1251	6.2550	466.271323	1406.187592	-47.448481	513.642075	1376.552143	-308.448460	454.536820	1445.039908	-186.076388	401.070530	1300.023033	-188.453397	495.788210	1077.300919	68.825979	711.665765	916.375729	-62.719994	507.612303	1099.957676	-531.466182	711.941330	911.942911	-429.476577	-129.627966	1203.388446	-271.577437	48.555681	1250.732634	-396.609867	18.383102	1258.808426	-109.285445	71.583306	1177.580079	-365.525340	41.886959	1206.745569	-117.654463	-109.292968	1248.229304	-220.603357	-87.362148	1251.312863	-329.078628	-26.016059	1127.481973	-64.750633	-0.742489	1093.836451	-425.735211	94.577369	1018.562307	-63.417107	167.513714	970.872059	-75.330149	208.473326	896.176882	-79.610573	192.201735	995.833256	-89.615485	291.909335	784.924417	-111.802477	273.042151	763.528814	-213.019719	264.477117	646.412106	-76.910074	268.852467	558.146835	-92.863642	234.318427	478.942436	-82.127973	280.505727	557.557079	-132.239516	204.621209	338.979719	-74.573616	145.183702	285.252625	-96.744213	431.807607	324.856301	-130.322917	367.916926	275.853370	-55.363523	87.445896	1012.551307	-425.261623	170.047588	980.183189	-420.787424	189.709181	1008.771851	-409.603519	226.993908	912.012723	-412.162666	339.176895	785.245954	-373.606335	321.795530	769.911563	-274.922013	226.655223	686.626265	-392.695948	177.318630	617.573065	-377.213642	96.128489	578.551623	-386.427198	181.526195	617.060680	-335.521134	-11.326454	504.169299	-390.254820	-87.463452	514.548311	-356.231826	121.946137	314.963952	-356.271971	44.546585	348.695557	-417.943199	-264.118996	977.613658	-236.881287	-82.705661	78.746460	-435.112243	-82.730605	78.891087	-37.645920	
1252	6.2600	468.013113	1406.436727	-48.152073	512.731455	1377.918347	-310.653635	454.557265	1446.285631	-187.021690	401.187390	1301.233705	-189.642587	496.765317	1077.668258	69.628396	711.542077	916.315355	-62.484784	507.015249	1099.525874	-531.070405	711.803593	911.978818	-429.305205	-129.030081	1203.028231	-268.886902	48.063452	1251.301124	-394.368090	18.839396	1257.987776	-104.522295	71.508983	1178.143225	-363.826067	43.268448	1205.500191	-115.366752	-108.386406	1247.567737	-217.618295	-87.380026	1250.984862	-326.062342	-25.143882	1125.790107	-62.809780	-0.641334	1094.868276	-424.248906	93.542924	1015.121631	-62.036508	165.365687	965.943128	-74.334465	204.838526	890.389117	-78.603688	190.537220	990.281178	-88.920568	286.004039	776.763616	-110.927705	266.563142	755.179813	-211.675473	260.087032	638.205514	-75.994298	265.226204	549.993257	-92.065558	231.616172	470.347576	-80.993599	275.980802	549.812771	-131.511113	202.645148	330.097636	-73.168901	142.621660	277.038430	-94.623686	429.374760	312.744846	-131.982881	366.052344	265.292950	-55.362987	88.944747	1014.873485	-424.089322	171.976843	984.291482	-419.295966	191.267428	1013.865192	-409.801606	230.821773	917.854237	-411.361003	346.515469	793.882431	-373.248811	329.429030	778.718452	-274.612702	233.742872	695.868079	-392.545237	184.062937	627.050225	-377.348134	102.936014	588.393125	-385.644882	188.458711	626.150253	-335.650951	-5.235883	514.892514	-390.078226	-80.930486	526.776561	-356.130973	122.954819	321.593880	-354.483908	48.007387	358.733236	-418.425630	-264.118893	977.589991	-236.395331	-82.720761	78.761873	-435.099998	-82.734691	78.874680	-37.628873	
1253	6.2650	469.334933	1406.503105	-48.930064	511.594111	1379.458790	-312.866536	454.492443	1447.830948	-188.121031	400.483454	1303.025483	-191.408064	497.713922	1078.124565	70.452891	711.363916	916.320833	-62.177399	506.225925	1099.148738	-530.737300	711.612730	912.099165	-429.252146	-128.500390	1202.899093	-265.930163	47.426242	1252.227540	-392.221765	20.175704	1257.110335	-101.724217	71.322617	1179.021521	-361.887986	44.836743	1204.255599	-113.267621	-107.414965	1246.956425	-214.491560	-87.608308	1251.454905	-322.954274	-24.015624	1124.022731	-60.888023	-0.416883	1096.456954	-422.874662	92.660130	1011.482963	-60.709756	163.433388	960.930345	-73.301519	201.251860	884.589926	-77.622188	188.480274	984.276542	-88.877913	280.154585	768.852674	-110.163826	259.793779	746.939834	-210.257175	255.207545	630.106651	-74.969379	261.060466	541.901440	-91.231778	228.417689	462.049101	-79.989529	271.523923	542.006705	-130.896930	200.289973	321.574794	-72.013551	139.902174	269.037625	-93.141053	426.616656	301.553855	-132.504922	362.770401	254.631542	-55.961192	90.592145	1017.840459	-422.793852	174.213534	989.257137	-418.403861	193.072557	1019.459470	-410.106540	234.439212	924.107991	-410.110373	354.175334	804.133177	-374.380022	336.910651	788.107135	-275.193054	241.260459	705.678800	-392.491630	191.384703	636.970917	-377.598768	110.062466	598.730188	-386.429605	195.996324	635.568917	-335.987762	1.785887	525.525630	-390.090525	-73.050526	538.860004	-356.420845	124.034811	327.518737	-352.116700	51.928277	367.900253	-418.017402	-264.006918	977.699485	-236.365394	-82.727120	78.780139	-435.088459	-82.740897	78.856627	-37.605620	
1254	6.2700	470.891687	1406.859432	-49.935047	510.334571	1381.148795	-315.246438	454.378444	1449.651601	-189.383369	399.838026	1305.055102	-193.217288	498.606518	1078.634515	71.282707	711.270364	916.404766	-61.770667	505.401150	1098.848196	-530.350205	711.446467	912.249868	-429.178694	-127.690632	1202.932619	-263.124338	46.717522	1253.604574	-389.851749	21.794958	1256.122033	-99.412756	71.430234	1180.471937	-359.976545	46.501046	1203.198293	-111.117051	-106.333367	1246.390685	-211.227694	-87.439533	1251.587297	-319.992046	-22.756536	1122.183600	-59.097328	0.015088	1098.582750	-421.560165	91.700161	1007.536494	-59.486063	161.506699	955.591665	-72.216977	197.824470	878.502312	-76.510682	186.903244	978.094773	-88.345536	274.071772	760.919559	-109.456203	252.435505	739.135931	-209.228413	249.821549	622.016073	-73.782592	256.312897	533.942738	-90.252946	224.427963	453.715644	-78.880366	266.474250	534.164286	-130.001725	197.237875	313.463067	-71.014535	136.412726	261.332804	-91.864902	423.303573	290.569549	-133.067372	359.335598	244.584675	-56.023896	92.412762	1021.443580	-421.476364	176.561404	994.958035	-417.764892	195.069147	1025.658912	-410.526519	238.335989	931.185655	-409.792688	361.903328	814.061694	-374.344711	345.404507	799.314649	-274.048892	249.243125	715.802625	-392.602106	199.222867	647.299760	-377.842474	117.969115	608.981412	-386.750239	204.069577	645.480044	-336.236672	9.834251	535.846923	-390.247606	-64.483750	551.014290	-356.343254	125.386243	332.909682	-349.398962	56.657604	377.042008	-417.823497	-263.981210	977.696642	-235.823773	-82.722824	78.785654	-435.063641	-82.715404	78.841382	-37.592896	
